<?xml version="1.0" encoding="UTF-8"?>
<svg version="1.1" xmlns="http://www.w3.org/2000/svg" width="1024" height="1024">
<path d="M0 0 C0.82213989 -0.00067474 1.64427979 -0.00134949 2.49133301 -0.00204468 C31.91915378 0.03624484 61.68600784 4.95352047 87.375 20.25 C89.0573438 20.94833139 90.73981549 21.64639645 92.42578125 22.3359375 C95.74860404 23.89413496 98.8064534 25.9005264 101.9296875 27.8203125 C104.99369297 29.61172784 108.07351481 30.95811449 111.375 32.25 C111.375 32.91 111.375 33.57 111.375 34.25 C112.035 34.58 112.695 34.91 113.375 35.25 C113.375 35.91 113.375 36.57 113.375 37.25 C114.303125 37.518125 115.23125 37.78625 116.1875 38.0625 C119.13281025 39.15977245 120.52517877 39.78357169 122.375 42.25 C122.375 42.91 122.375 43.57 122.375 44.25 C123.365 44.25 124.355 44.25 125.375 44.25 C125.375 44.91 125.375 45.57 125.375 46.25 C126.86 45.755 126.86 45.755 128.375 45.25 C128.375 46.24 128.375 47.23 128.375 48.25 C128.973125 48.518125 129.57125 48.78625 130.1875 49.0625 C132.37347854 50.24917406 133.78832594 51.34599113 135.375 53.25 C135.375 53.91 135.375 54.57 135.375 55.25 C136.035 55.25 136.695 55.25 137.375 55.25 C137.375 55.91 137.375 56.57 137.375 57.25 C138.035 57.25 138.695 57.25 139.375 57.25 C139.375 57.91 139.375 58.57 139.375 59.25 C140.035 59.25 140.695 59.25 141.375 59.25 C141.375 59.91 141.375 60.57 141.375 61.25 C142.035 61.25 142.695 61.25 143.375 61.25 C144.77734375 63.11328125 144.77734375 63.11328125 146.3125 65.5625 C148.4224402 68.92558798 148.4224402 68.92558798 151.06640625 71.85546875 C152.375 73.25 152.375 73.25 152.375 76.25 C153.035 76.25 153.695 76.25 154.375 76.25 C166.03724359 90.37694455 174.20066051 108.14511605 180.375 125.25 C180.85195313 126.43207031 181.32890625 127.61414063 181.8203125 128.83203125 C194.30701009 162.17992781 193.91316945 200.91432802 186.375 235.25 C186.08834473 236.59843994 186.08834473 236.59843994 185.79589844 237.97412109 C179.54280698 267.10475834 168.22713724 293.49721158 153.375 319.25 C152.715 319.25 152.055 319.25 151.375 319.25 C151.64944776 321.18573587 151.64944776 321.18573587 152.375 323.25 C154.70594042 324.87895837 156.97443902 326.28883425 159.4375 327.6875 C168.46997011 333.07651843 176.37904784 339.44823573 184.375 346.25 C185.7277869 347.38420724 187.08065137 348.51832198 188.43359375 349.65234375 C195.28544402 355.44379861 201.6755951 361.28718023 207.375 368.25 C208.16003906 369.1471875 208.16003906 369.1471875 208.9609375 370.0625 C212.375 373.98584254 212.375 373.98584254 212.375 376.25 C213.035 376.25 213.695 376.25 214.375 376.25 C221.42146364 384.26778068 226.68009554 394.05004566 232.12792969 403.18017578 C233.17906697 404.92480027 234.2618131 406.65032344 235.3515625 408.37109375 C253.12220237 436.97452095 261.4311695 474.90132237 262.375 508.25 C262.41584717 509.64557129 262.41584717 509.64557129 262.45751953 511.06933594 C263.82444414 566.93270763 251.00350293 616.1144221 223.375 664.25 C222.715 664.25 222.055 664.25 221.375 664.25 C221.10276611 664.99080811 220.83053223 665.73161621 220.55004883 666.49487305 C219.44094383 669.09538207 218.24669769 671.06736966 216.57421875 673.33203125 C215.73588501 674.47164307 215.73588501 674.47164307 214.88061523 675.63427734 C214.28063721 676.43559082 213.68065918 677.2369043 213.0625 678.0625 C212.44383057 678.89475098 211.82516113 679.72700195 211.18774414 680.58447266 C206.99852741 686.18109168 202.71112584 691.69155405 198.3125 697.125 C197.78938232 697.77186768 197.26626465 698.41873535 196.72729492 699.08520508 C193.78212966 702.676928 190.72394269 706.02197675 187.375 709.25 C186.02148438 710.56484375 186.02148438 710.56484375 184.640625 711.90625 C160.92992098 734.44013599 133.10171292 751.20742227 102.375 762.25 C101.31889526 762.63236816 101.31889526 762.63236816 100.24145508 763.02246094 C94.23739264 765.11654278 88.14710771 766.53103681 81.9375 767.875 C79.97996278 768.30237655 78.02290405 768.73195256 76.06640625 769.1640625 C75.21248291 769.3492041 74.35855957 769.5343457 73.47875977 769.72509766 C71.33663161 770.17860768 71.33663161 770.17860768 69.375 771.25 C66.91558798 771.60604627 64.46894562 771.91496126 62 772.1875 C61.24976563 772.27177246 60.49953125 772.35604492 59.7265625 772.44287109 C58.11253815 772.62239148 56.49826901 772.79972182 54.88378906 772.97509766 C52.38750369 773.2486299 49.89309025 773.53622375 47.3984375 773.82421875 C28.52462877 775.94073557 11.14507569 775.24472313 -7.625 772.25 C-9.19894531 772.00056641 -9.19894531 772.00056641 -10.8046875 771.74609375 C-33.60248926 768.02006077 -54.80643015 761.21787346 -75.625 751.25 C-76.74261719 750.72535156 -77.86023438 750.20070313 -79.01171875 749.66015625 C-84.78499118 746.87331412 -90.20273587 743.75173129 -95.5625 740.23828125 C-97.89988527 738.72076964 -100.24754167 737.24530029 -102.625 735.79296875 C-103.3272168 735.36209961 -104.02943359 734.93123047 -104.75292969 734.48730469 C-106.12590569 733.64633319 -107.50140437 732.80946054 -108.87988281 731.97753906 C-115.59318612 727.84187502 -121.06545755 722.80954245 -126.625 717.25 C-129.0154796 715.15883595 -131.41585733 713.08096512 -133.83203125 711.01953125 C-134.42371094 710.43558594 -135.01539063 709.85164062 -135.625 709.25 C-135.625 708.59 -135.625 707.93 -135.625 707.25 C-136.945 706.59 -138.265 705.93 -139.625 705.25 C-139.625 704.59 -139.625 703.93 -139.625 703.25 C-140.24375 703.023125 -140.8625 702.79625 -141.5 702.5625 C-144.23910209 700.87070165 -144.67524472 699.25755839 -145.625 696.25 C-146.285 696.25 -146.945 696.25 -147.625 696.25 C-149.0625 694.31640625 -149.0625 694.31640625 -150.625 691.8125 C-152.5779916 688.43993349 -152.5779916 688.43993349 -155.625 686.25 C-156.66120023 684.60559529 -157.65651023 682.9351722 -158.625 681.25 C-159.099375 680.5384375 -159.57375 679.826875 -160.0625 679.09375 C-169.14606808 665.46839787 -176.62294542 650.84081948 -181.625 635.25 C-181.95371094 634.46625 -182.28242188 633.6825 -182.62109375 632.875 C-183.94720603 629.40750018 -184.7898405 625.85929919 -185.625 622.25 C-185.8866394 621.13202026 -185.8866394 621.13202026 -186.15356445 619.99145508 C-187.44908865 614.32421809 -188.44115115 608.64799954 -189.23046875 602.88671875 C-189.54178543 600.37922555 -189.54178543 600.37922555 -190.14126939 598.52741498 C-190.80872882 595.38500044 -190.75472847 592.38733056 -190.75922108 589.17464161 C-190.76157331 588.45826895 -190.76392554 587.7418963 -190.76634905 587.00381538 C-190.77303372 584.59072933 -190.77258098 582.17769719 -190.77217102 579.76460266 C-190.77547005 578.02180197 -190.77919571 576.27900204 -190.7833125 574.53620309 C-190.79333755 569.73643424 -190.79705016 564.9366779 -190.79970181 560.13690007 C-190.80360379 554.96329601 -190.81318273 549.78970186 -190.82191467 544.61610413 C-190.84169009 532.11030601 -190.85175018 519.60450707 -190.86064246 507.09869722 C-190.86502673 501.20393733 -190.87039347 495.30917835 -190.87563133 489.41441917 C-190.89265057 469.80503813 -190.9071407 450.19565763 -190.91438007 430.58627033 C-190.91628989 425.49574597 -190.91821022 420.40522161 -190.92016602 415.31469727 C-190.92064976 414.04951514 -190.9211335 412.78433301 -190.9216319 411.48081204 C-190.92991688 391.02490458 -190.95522472 370.5690559 -190.98774669 350.11317406 C-191.02089447 329.09130485 -191.0388361 308.0694654 -191.04202431 287.04756993 C-191.04418312 275.25316077 -191.05283823 263.45883711 -191.07848549 251.66445351 C-191.10029875 241.60999078 -191.10819133 231.55563429 -191.09851871 221.50115059 C-191.09400355 216.38009374 -191.09569562 211.25925558 -191.11528015 206.13822937 C-191.20670142 180.83661548 -190.89880082 156.19800515 -182.9375 131.875 C-182.60298828 130.81555176 -182.26847656 129.75610352 -181.92382812 128.66455078 C-178.68768904 118.76989165 -174.42521177 109.47262909 -169.625 100.25 C-168.965 100.25 -168.305 100.25 -167.625 100.25 C-167.521875 99.71375 -167.41875 99.1775 -167.3125 98.625 C-165.6453409 92.86572312 -162.27752499 88.09996193 -158.9296875 83.203125 C-157.59305941 81.29024387 -157.59305941 81.29024387 -156.625 79.25 C-155.965 79.25 -155.305 79.25 -154.625 79.25 C-154.356875 78.693125 -154.08875 78.13625 -153.8125 77.5625 C-152.51600504 75.03774666 -151.20023677 72.61285516 -149.625 70.25 C-148.965 70.25 -148.305 70.25 -147.625 70.25 C-147.13 68.27 -147.13 68.27 -146.625 66.25 C-145.965 66.25 -145.305 66.25 -144.625 66.25 C-144.36460937 65.6725 -144.10421875 65.095 -143.8359375 64.5 C-140.97693752 59.18779358 -136.11547904 54.24153692 -131.625 50.25 C-130.965 50.25 -130.305 50.25 -129.625 50.25 C-129.625 49.59 -129.625 48.93 -129.625 48.25 C-128.965 48.25 -128.305 48.25 -127.625 48.25 C-127.625 47.59 -127.625 46.93 -127.625 46.25 C-126.27699895 45.31923737 -124.92450057 44.39176093 -123.5234375 43.54296875 C-121.43036871 42.16751348 -121.43036871 42.16751348 -118.94140625 39.9609375 C-115.24995977 36.84670944 -111.25465861 34.28026866 -107.1875 31.6875 C-106.46240234 31.21892578 -105.73730469 30.75035156 -104.99023438 30.26757812 C-80.77954026 14.7144368 -55.09612977 5.17782194 -26.625 1.25 C-25.94840332 1.146875 -25.27180664 1.04375 -24.57470703 0.9375 C-16.44465498 -0.16301466 -8.18922941 0.0060272 0 0 Z " fill="#3CAB5B" transform="translate(512.625,103.75)"/>
<path d="M0 0 C0.82213989 -0.00067474 1.64427979 -0.00134949 2.49133301 -0.00204468 C31.91915378 0.03624484 61.68600784 4.95352047 87.375 20.25 C89.0573438 20.94833139 90.73981549 21.64639645 92.42578125 22.3359375 C95.74860404 23.89413496 98.8064534 25.9005264 101.9296875 27.8203125 C104.99369297 29.61172784 108.07351481 30.95811449 111.375 32.25 C111.375 32.91 111.375 33.57 111.375 34.25 C112.035 34.58 112.695 34.91 113.375 35.25 C113.375 35.91 113.375 36.57 113.375 37.25 C114.303125 37.518125 115.23125 37.78625 116.1875 38.0625 C119.13281025 39.15977245 120.52517877 39.78357169 122.375 42.25 C122.375 42.91 122.375 43.57 122.375 44.25 C123.365 44.25 124.355 44.25 125.375 44.25 C125.375 44.91 125.375 45.57 125.375 46.25 C126.86 45.755 126.86 45.755 128.375 45.25 C128.375 46.24 128.375 47.23 128.375 48.25 C128.973125 48.518125 129.57125 48.78625 130.1875 49.0625 C132.37347854 50.24917406 133.78832594 51.34599113 135.375 53.25 C135.375 53.91 135.375 54.57 135.375 55.25 C136.035 55.25 136.695 55.25 137.375 55.25 C137.375 55.91 137.375 56.57 137.375 57.25 C138.035 57.25 138.695 57.25 139.375 57.25 C139.375 57.91 139.375 58.57 139.375 59.25 C140.035 59.25 140.695 59.25 141.375 59.25 C141.375 59.91 141.375 60.57 141.375 61.25 C142.035 61.25 142.695 61.25 143.375 61.25 C144.77734375 63.11328125 144.77734375 63.11328125 146.3125 65.5625 C148.4224402 68.92558798 148.4224402 68.92558798 151.06640625 71.85546875 C152.375 73.25 152.375 73.25 152.375 76.25 C153.035 76.25 153.695 76.25 154.375 76.25 C166.03724359 90.37694455 174.20066051 108.14511605 180.375 125.25 C180.85195313 126.43207031 181.32890625 127.61414063 181.8203125 128.83203125 C194.30701009 162.17992781 193.91316945 200.91432802 186.375 235.25 C186.08834473 236.59843994 186.08834473 236.59843994 185.79589844 237.97412109 C179.54280698 267.10475834 168.22713724 293.49721158 153.375 319.25 C152.715 319.25 152.055 319.25 151.375 319.25 C151.375 320.57 151.375 321.89 151.375 323.25 C150.385 323.25 149.395 323.25 148.375 323.25 C148.14296875 323.77851563 147.9109375 324.30703125 147.671875 324.8515625 C130.06601177 357.41180353 92.08645408 379.29911849 57.93359375 389.9375 C37.74714904 395.91223606 17.18460182 397.434011 -3.769104 397.65536499 C-39.56129117 398.08640382 -72.91721186 403.53020885 -104.85302734 420.32128906 C-106.42153639 421.14336242 -108.00104037 421.94438233 -109.58203125 422.7421875 C-134.71413408 435.76819687 -156.66328907 457.14542342 -172.625 480.25 C-173.08132813 480.9095166 -173.53765625 481.5690332 -174.0078125 482.24853516 C-178.73084598 489.12223567 -183.25632309 496.09656389 -187.46875 503.296875 C-188.46608095 504.98155565 -189.53903104 506.62104655 -190.625 508.25 C-190.71675995 465.61636458 -190.78714215 422.98274066 -190.82926132 380.34902588 C-190.83426353 375.3040542 -190.83944088 370.25908272 -190.84472656 365.21411133 C-190.8457758 364.2098413 -190.84682505 363.20557126 -190.84790608 362.17086881 C-190.86526293 345.95674613 -190.8967743 329.74268078 -190.93361118 313.528592 C-190.97115252 296.86418198 -190.99326359 280.19980178 -191.00135398 263.53535122 C-191.00681454 253.27071436 -191.0239962 243.00623957 -191.05666587 232.74165266 C-191.07797707 225.68179918 -191.08416295 218.62202823 -191.07900551 211.562145 C-191.07646924 207.50232789 -191.08007057 203.44279191 -191.1018219 199.38302612 C-191.21857975 176.44763878 -190.13530504 153.86540746 -182.9375 131.875 C-182.60298828 130.81555176 -182.26847656 129.75610352 -181.92382812 128.66455078 C-178.68768904 118.76989165 -174.42521177 109.47262909 -169.625 100.25 C-168.965 100.25 -168.305 100.25 -167.625 100.25 C-167.521875 99.71375 -167.41875 99.1775 -167.3125 98.625 C-165.6453409 92.86572312 -162.27752499 88.09996193 -158.9296875 83.203125 C-157.59305941 81.29024387 -157.59305941 81.29024387 -156.625 79.25 C-155.965 79.25 -155.305 79.25 -154.625 79.25 C-154.356875 78.693125 -154.08875 78.13625 -153.8125 77.5625 C-152.51600504 75.03774666 -151.20023677 72.61285516 -149.625 70.25 C-148.965 70.25 -148.305 70.25 -147.625 70.25 C-147.13 68.27 -147.13 68.27 -146.625 66.25 C-145.965 66.25 -145.305 66.25 -144.625 66.25 C-144.36460937 65.6725 -144.10421875 65.095 -143.8359375 64.5 C-140.97693752 59.18779358 -136.11547904 54.24153692 -131.625 50.25 C-130.965 50.25 -130.305 50.25 -129.625 50.25 C-129.625 49.59 -129.625 48.93 -129.625 48.25 C-128.965 48.25 -128.305 48.25 -127.625 48.25 C-127.625 47.59 -127.625 46.93 -127.625 46.25 C-126.27699895 45.31923737 -124.92450057 44.39176093 -123.5234375 43.54296875 C-121.43036871 42.16751348 -121.43036871 42.16751348 -118.94140625 39.9609375 C-115.24995977 36.84670944 -111.25465861 34.28026866 -107.1875 31.6875 C-106.46240234 31.21892578 -105.73730469 30.75035156 -104.99023438 30.26757812 C-80.77954026 14.7144368 -55.09612977 5.17782194 -26.625 1.25 C-25.94840332 1.146875 -25.27180664 1.04375 -24.57470703 0.9375 C-16.44465498 -0.16301466 -8.18922941 0.0060272 0 0 Z " fill="#00ADFE" transform="translate(512.625,103.75)"/>
<path d="M0 0 C5.96862083 0.39727746 9.77932726 3.08313548 14.5625 6.375 C15.75504395 7.18420898 15.75504395 7.18420898 16.97167969 8.00976562 C23.4686677 12.48773801 29.49311168 17.34870067 35.38623047 22.58496094 C37.11151252 24.09778012 38.86558661 25.57079476 40.62890625 27.0390625 C47.31235291 32.62198652 53.45230088 38.24918541 59 45 C59.52464844 45.59941406 60.04929687 46.19882812 60.58984375 46.81640625 C64 50.73666898 64 50.73666898 64 53 C64.66 53 65.32 53 66 53 C68 56 68 56 67.734375 57.97070312 C58.84337216 82.53919237 34.98567493 107.65512631 15 124 C14.16984375 124.72960937 13.3396875 125.45921875 12.484375 126.2109375 C-23.42583315 157.31349483 -68.5389344 174.05932243 -115.9375 173.375 C-117.98689423 173.3578861 -120.03629214 173.34120742 -122.08569336 173.32495117 C-135.47571438 173.18753018 -148.71499273 172.76012675 -162 171 C-163.42558502 170.81533387 -164.8512065 170.63094911 -166.27685547 170.44677734 C-174.27320149 169.40856954 -182.26389313 168.33291624 -190.25 167.21875 C-190.9921727 167.11551926 -191.7343454 167.01228851 -192.49900818 166.90592957 C-198.38543975 166.08699255 -198.38543975 166.08699255 -201.03173828 165.71240234 C-216.47200015 163.52958741 -231.64718513 162.7641254 -247.22509766 162.70483398 C-249.30719838 162.69337614 -251.38927119 162.67302412 -253.47119141 162.64331055 C-282.2678628 162.23466902 -308.94324158 167.48643154 -334 182 C-335.32679831 182.67957962 -336.6569611 183.3531084 -338 184 C-331.4943603 165.53706723 -316.39452922 147.91302712 -303 134 C-302.49919922 133.47341797 -301.99839844 132.94683594 -301.48242188 132.40429688 C-288.70125975 119.01953795 -274.96626221 108.3374832 -259 99 C-258.39607422 98.64309082 -257.79214844 98.28618164 -257.16992188 97.91845703 C-224.96420169 79.10232688 -189.04697563 74.08927399 -152.40640259 73.45159912 C-101.26303565 72.53330468 -56.27607198 59.21558629 -19 23 C-18.44965088 22.47736572 -17.89930176 21.95473145 -17.33227539 21.41625977 C-12.90337644 17.12910513 -9.19015141 12.53743474 -5.5625 7.5625 C-5.02173828 6.83095703 -4.48097656 6.09941406 -3.92382812 5.34570312 C-2.61058649 3.56759719 -1.30279614 1.78576518 0 0 Z " fill="#132346" transform="translate(661,427)"/>
<path d="M0 0 C0.33 0 0.66 0 1 0 C1 86.79 1 173.58 1 263 C0.67 263 0.34 263 0 263 C-1.56018824 249.63699923 -2.28808479 236.50962406 -2.24291992 223.06152344 C-2.24399682 221.1597792 -2.2459415 219.2580353 -2.24867249 217.35629272 C-2.25346298 212.25215213 -2.24593497 207.14810087 -2.23571944 202.04397106 C-2.22682347 196.64847634 -2.22869872 191.25298348 -2.2290802 185.85748291 C-2.22814747 176.7897394 -2.21952295 167.72202961 -2.20581055 158.65429688 C-2.19014647 148.25942627 -2.1848108 137.86459263 -2.1855461 127.46971107 C-2.18622914 116.29441632 -2.1792408 105.11913532 -2.1700995 93.9438448 C-2.1679965 90.77617907 -2.16726222 87.60851566 -2.16686058 84.4408493 C-2.16212156 65.2741523 -2.1505712 46.11304174 -1.55200195 26.95410156 C-1.51341411 25.71186703 -1.47482626 24.46963249 -1.43506908 23.18975449 C-1.16146246 15.44054049 -0.65449961 7.72611827 0 0 Z " fill="#48BFFE" transform="translate(324,272)"/>
<path d="M0 0 C0.66 0 1.32 0 2 0 C2 28.71 2 57.42 2 87 C1.67 87 1.34 87 1 87 C0.09792701 82.34994427 -0.17273295 77.82108426 -0.22119141 73.09863281 C-0.2326973 72.33043716 -0.24420319 71.56224152 -0.25605774 70.77076721 C-0.29254735 68.24825934 -0.32230932 65.72572641 -0.3515625 63.203125 C-0.37469361 61.44528877 -0.39808407 59.68745594 -0.42172241 57.92962646 C-0.47005588 54.25471027 -0.51500938 50.57977205 -0.55761719 46.90478516 C-0.61261335 42.18786937 -0.67642974 37.47112048 -0.74279213 32.75435257 C-0.79277191 29.1291118 -0.8379321 25.5038233 -0.88163376 21.87850189 C-0.90322918 20.13849669 -0.92638098 18.39851009 -0.9510994 16.65854645 C-0.98486327 14.23365597 -1.01210725 11.80877868 -1.03759766 9.38378906 C-1.04897263 8.66169754 -1.0603476 7.93960602 -1.07206726 7.19563293 C-1.11424692 2.22849384 -1.11424692 2.22849384 0 0 Z " fill="#34A854" transform="translate(323,611)"/>
<path d="M0 0 C0.33 0 0.66 0 1 0 C1.10220869 16.44459177 1.11207948 32.87517229 0.5625 49.3125 C0.52326416 50.51277832 0.48402832 51.71305664 0.44360352 52.94970703 C0.17381423 60.32256674 -0.31817933 67.65390512 -1 75 C-1.33 75 -1.66 75 -2 75 C-2.04643825 66.25481398 -2.08192743 57.50967072 -2.10362434 48.76438808 C-2.11404027 44.70315111 -2.12815926 40.6419988 -2.15087891 36.58081055 C-2.17268569 32.65803767 -2.18458509 28.735346 -2.18975449 24.81251717 C-2.19343622 23.31947617 -2.20062562 21.82643938 -2.21146011 20.33343315 C-2.22607948 18.23448116 -2.22797363 16.13586033 -2.22705078 14.03686523 C-2.231492 12.84439682 -2.23593323 11.65192841 -2.24050903 10.42332458 C-1.97469216 6.63977672 -1.15920774 3.59846747 0 0 Z " fill="#49C0FE" transform="translate(324,537)"/>
<path d="M0 0 C0.33 0 0.66 0 1 0 C3.39125426 13.9760686 4.10014911 27.59469877 4.1875 41.75 C4.20055176 43.01336182 4.21360352 44.27672363 4.22705078 45.57836914 C4.22874268 47.35715454 4.22874268 47.35715454 4.23046875 49.171875 C4.23457764 50.2453418 4.23868652 51.31880859 4.24291992 52.42480469 C4 55 4 55 2 57 C1.91697632 55.21553467 1.91697632 55.21553467 1.83227539 53.39501953 C1.62432639 48.94062735 1.41288466 44.48640638 1.20043945 40.03222656 C1.1093314 38.11202348 1.01914439 36.19177645 0.92993164 34.27148438 C0.80082119 31.49597023 0.66829279 28.7206361 0.53515625 25.9453125 C0.47727684 24.67749435 0.47727684 24.67749435 0.41822815 23.38406372 C0.17014603 18.29345732 -0.25115565 13.25459871 -0.8427887 8.19186401 C-1.04698312 5.34495416 -0.65569314 2.76848215 0 0 Z " fill="#5DB876" transform="translate(771,585)"/>
<path d="M0 0 C0.66 0 1.32 0 2 0 C2.87115183 7.58572207 3.07624651 14.94677815 2.6875 22.5625 C2.65277588 23.33577637 2.61805176 24.10905273 2.58227539 24.90576172 C2.34002948 28.95326865 1.84968883 31.30062235 0 35 C0 23.45 0 11.9 0 0 Z " fill="#32B3FE" transform="translate(701,278)"/>
<path d="M0 0 C5.55644068 3.95362125 10.57116149 8.29924627 15.54882812 12.94580078 C19.51020356 16.61753542 23.60266983 19.87113046 28 23 C23.1254946 23 19.95973568 20.88951111 16.4375 17.625 C15.633125 16.75875 14.82875 15.8925 14 15 C10.12081413 11.01305896 6.0218991 7.3775746 1.79296875 3.76953125 C1.20128906 3.18558594 0.60960937 2.60164062 0 2 C0 1.34 0 0.68 0 0 Z " fill="#F3F9F5" transform="translate(377,811)"/>
<path d="M0 0 C0.66 0.33 1.32 0.66 2 1 C-8.10287443 13.94430787 -8.10287443 13.94430787 -16 15 C-15.34 14.01 -14.68 13.02 -14 12 C-13.34 12 -12.68 12 -12 12 C-12 11.34 -12 10.68 -12 10 C-11.34 10 -10.68 10 -10 10 C-10 9.34 -10 8.68 -10 8 C-8.01399663 6.6459068 -6.01182457 5.31542376 -4 4 C-2.63113049 2.70317626 -1.2830709 1.38176866 0 0 Z " fill="#4CBDFE" transform="translate(395,142)"/>
<path d="M0 0 C5.15171623 -0.09038099 9.91913204 0.15318867 15 1 C15 1.66 15 2.32 15 3 C4.44191344 3.18451025 4.44191344 3.18451025 0 2 C0 1.34 0 0.68 0 0 Z " fill="#4EB46B" transform="translate(505,874)"/>
<path d="M0 0 C0.28875 0.598125 0.5775 1.19625 0.875 1.8125 C2.04742026 4.19327792 2.04742026 4.19327792 4 7 C2.69593116 9.01920337 1.36176581 11.01924973 0 13 C-0.33 13 -0.66 13 -1 13 C-1.0272415 11.58344207 -1.04650467 10.16672955 -1.0625 8.75 C-1.07410156 7.96109375 -1.08570313 7.1721875 -1.09765625 6.359375 C-1.00385306 4.09308998 -0.63241063 2.1711105 0 0 Z " fill="#0BA9EE" transform="translate(324,596)"/>
<path d="M0 0 C0.66 0.33 1.32 0.66 2 1 C1.3125 2.875 1.3125 2.875 0 5 C-1.6635479 5.67441131 -3.33066942 6.3400321 -5 7 C-7.77152212 9.52056045 -7.77152212 9.52056045 -10 12 C-10.66 11.67 -11.32 11.34 -12 11 C-10.75323147 9.72599623 -9.5024352 8.45593346 -8.25 7.1875 C-7.55390625 6.47980469 -6.8578125 5.77210938 -6.140625 5.04296875 C-4.18571355 3.17724121 -2.19661447 1.56830358 0 0 Z " fill="#13102E" transform="translate(376,544)"/>
<path d="M0 0 C0.33 0.99 0.66 1.98 1 3 C-2.3 5.97 -5.6 8.94 -9 12 C-9 9 -9 9 -7.03125 6.73828125 C-5.77828125 5.53751953 -5.77828125 5.53751953 -4.5 4.3125 C-3.6646875 3.50425781 -2.829375 2.69601562 -1.96875 1.86328125 C-1.3190625 1.24839844 -0.669375 0.63351562 0 0 Z " fill="#141230" transform="translate(363,556)"/>
<path d="M0 0 C2.86697492 1.28519565 4.97607712 2.57129254 7 5 C7 5.66 7 6.32 7 7 C7.66 7 8.32 7 9 7 C8.67 7.66 8.34 8.32 8 9 C3.7938588 7.49780671 2.22833454 4.74041869 0 1 C0 0.67 0 0.34 0 0 Z " fill="#98D8FD" transform="translate(641,152)"/>
<path d="M0 0 C-1.21163848 3.63491543 -2.10771062 3.95246215 -5.375 5.75 C-6.56222656 6.42289063 -6.56222656 6.42289063 -7.7734375 7.109375 C-10 8 -10 8 -13 7 C-12.071875 6.566875 -11.14375 6.13375 -10.1875 5.6875 C-7.48670268 4.25766613 -5.99855536 3.1984109 -4 1 C-2 0 -2 0 0 0 Z " fill="#A4D8B2" transform="translate(652,847)"/>
<path d="M0 0 C0.66 0 1.32 0 2 0 C2 0.66 2 1.32 2 2 C2.66 2 3.32 2 4 2 C4 2.66 4 3.32 4 4 C4.66 4 5.32 4 6 4 C6.66 5.65 7.32 7.3 8 9 C4.27885429 6.68462045 1.38770339 4.71420527 -1 1 C-0.67 0.67 -0.34 0.34 0 0 Z " fill="#82CEFD" transform="translate(650,161)"/>
<path d="M0 0 C2.97 0.495 2.97 0.495 6 1 C6 1.66 6 2.32 6 3 C6.66 3.33 7.32 3.66 8 4 C8 4.66 8 5.32 8 6 C8.66 6.33 9.32 6.66 10 7 C7 7 7 7 4 6 C4 5.01 4 4.02 4 3 C3.01 3 2.02 3 1 3 C0.67 2.01 0.34 1.02 0 0 Z " fill="#68C7FE" transform="translate(618,135)"/>
<path d="M0 0 C4.10958767 1.45044271 7.43258745 3.51110752 11 6 C10.01 6.495 10.01 6.495 9 7 C2.52856205 4.80433355 2.52856205 4.80433355 0.5625 1.8125 C0.376875 1.214375 0.19125 0.61625 0 0 Z " fill="#6ABE82" transform="translate(431,849)"/>
<path d="M0 0 C0.99 0 1.98 0 3 0 C3.33 1.32 3.66 2.64 4 4 C4.66 4 5.32 4 6 4 C6.66 5.65 7.32 7.3 8 9 C4.48536988 7.10019993 2.10449322 5.43364683 0 2 C0 1.34 0 0.68 0 0 Z " fill="#676B7A" transform="translate(721,476)"/>
<path d="M0 0 C3.05402088 1.52701044 3.65869481 3.95157912 5 7 C5 7.99 5 8.98 5 10 C3.0625 9.5 3.0625 9.5 1 8 C0.31209578 5.30341548 0.18053536 2.7982981 0 0 Z " fill="#5BC3FD" transform="translate(679,200)"/>
<path d="M0 0 C-2.34914492 2.34914492 -3.95679446 2.73140357 -7.125 3.625 C-8.49011719 4.01558594 -8.49011719 4.01558594 -9.8828125 4.4140625 C-10.58148437 4.60742188 -11.28015625 4.80078125 -12 5 C-12 4.34 -12 3.68 -12 3 C-4.71428571 -0.42857143 -4.71428571 -0.42857143 0 0 Z " fill="#79C58E" transform="translate(635,857)"/>
<path d="M0 0 C4.13937592 3.30015998 7.58662205 6.17324411 10 11 C8.68 10.34 7.36 9.68 6 9 C6 8.34 6 7.68 6 7 C5.38125 6.773125 4.7625 6.54625 4.125 6.3125 C1.38589791 4.62070165 0.94975528 3.00755839 0 0 Z " fill="#ECF6EF" transform="translate(367,800)"/>
<path d="M0 0 C3 2 3 2 3.73046875 4.1640625 C3.88128906 4.97617187 4.03210938 5.78828125 4.1875 6.625 C4.34605469 7.44226563 4.50460937 8.25953125 4.66796875 9.1015625 C4.83232422 10.04128906 4.83232422 10.04128906 5 11 C1.87729874 8.48169253 1.05476902 7.2738451 0.25 3.25 C0.1675 2.1775 0.085 1.105 0 0 Z " fill="#63BD7C" transform="translate(762,551)"/>
<path d="M0 0 C3.08089673 2.77280706 4.68775452 5.06326356 6 9 C3.525 8.01 3.525 8.01 1 7 C0.67 4.69 0.34 2.38 0 0 Z " fill="#75C28A" transform="translate(733,490)"/>
<path d="M0 0 C3.93673644 1.31224548 6.22719294 2.91910327 9 6 C4.70042176 5.52226908 2.78280018 4.29813355 0 1 C0 0.67 0 0.34 0 0 Z " fill="#747889" transform="translate(670,431)"/>
<path d="M0 0 C-2.6855594 2.6855594 -5.37621328 3.06049974 -9 4 C-9.66 3.34 -10.32 2.68 -11 2 C-9.73392393 1.46770674 -8.46189588 0.94955456 -7.1875 0.4375 C-6.47980469 0.14746094 -5.77210938 -0.14257812 -5.04296875 -0.44140625 C-3 -1 -3 -1 0 0 Z " fill="#31B2FE" transform="translate(453,114)"/>
<path d="M0 0 C0.66 0.99 1.32 1.98 2 3 C0.625 5.5 0.625 5.5 -1 8 C-1.66 8 -2.32 8 -3 8 C-1.125 1.125 -1.125 1.125 0 0 Z " fill="#5DC2FE" transform="translate(339,213)"/>
<path d="M0 0 C1.85776765 3.13498292 2.20140476 5.37471432 2 9 C1.67 8.34 1.34 7.68 1 7 C0.01 7 -0.98 7 -2 7 C-1.67 6.01 -1.34 5.02 -1 4 C-0.65772583 2.66893378 -0.32248257 1.33599921 0 0 Z " fill="#A0D5AE" transform="translate(768,567)"/>
<path d="M0 0 C2.79872437 2.52788007 4.45773019 4.20411134 5 8 C4.01 7.67 3.02 7.34 2 7 C0.8125 3.4375 0.8125 3.4375 0 0 Z " fill="#75CBFD" transform="translate(670,186)"/>
<path d="" fill="#FEFFFF" transform="translate(0,0)"/>
<path d="" fill="#FCFBFF" transform="translate(0,0)"/>
<path d="" fill="#FCFDFF" transform="translate(0,0)"/>
<path d="" fill="#FEFEFE" transform="translate(0,0)"/>
<path d="" fill="#FEFBFF" transform="translate(0,0)"/>
<path d="" fill="#FDFCFF" transform="translate(0,0)"/>
<path d="" fill="#FFFFFF" transform="translate(0,0)"/>
<path d="" fill="#FCFDFF" transform="translate(0,0)"/>
<path d="" fill="#F7FCFF" transform="translate(0,0)"/>
<path d="" fill="#FDFEFF" transform="translate(0,0)"/>
<path d="" fill="#FBFCFE" transform="translate(0,0)"/>
</svg>
